<svg width="1093" height="154" viewBox="0 0 1093 154" fill="none" xmlns="http://www.w3.org/2000/svg">
<path d="M142.179 0L112.002 75.3207L129.145 107.904L141.114 83.947L143.297 41.9677L146.455 83.6518L157.435 107.412L175.239 76.7044L142.179 0Z" fill="#103E3C"/>
<path d="M82.8908 76.5944C101.563 -0.978416 0 9.14734 0 9.14734C25.7331 16.6563 40.0987 26.7531 48.1108 35.9062C56.2675 45.2214 57.8044 56.9103 53.1554 67.5282C47.6314 80.1376 52.075 89.5281 52.075 89.5281C34.4909 75.1239 14.4873 75.176 14.4873 75.176C27.2473 81.3244 33.0148 94.4838 35.5029 103.035C37.8616 111.152 43.2868 118.62 51.4587 124.137C88.9703 149.455 130.461 112.483 130.461 112.483C130.461 112.483 71.8732 122.377 82.8908 76.5944Z" fill="#103E3C"/>
<path d="M249.951 100.349C250.225 97.1412 249.494 80.6355 239.96 65.4093C231.788 52.3598 223.274 43.9593 230.442 34.1867C237.487 24.5821 250.765 13.6574 275.638 4.62582C275.638 4.62582 173.337 0.613732 199.983 76.8318C215.703 121.81 158.751 112.217 158.751 112.217C158.751 112.217 201.475 149.831 236.247 122.343C243.826 116.356 249.251 108.645 249.966 100.349H249.951Z" fill="#103E3C"/>
<path d="M36.6214 40.7056C36.6214 40.7056 23.2907 58.9945 12.3644 27.3088C12.3644 27.3088 0.479361 57.7671 40.4943 69.4039C40.4943 69.4039 53.3304 56.754 36.6214 40.7056ZM38.7747 61.4203C19.9428 59.8687 20.5135 45.8293 20.5135 45.8293C29.8723 58.4445 32.8702 49.4824 32.8702 49.4824C42.3889 54.9129 38.7747 61.4203 38.7747 61.4203Z" fill="#103E3C"/>
<path d="M284.929 23.5457C284.586 21.5194 283.407 19.742 282.167 17.9936C280.219 15.261 278.218 12.5573 276.232 9.84787C276.14 9.72051 276.034 9.60471 275.859 9.3905C275.661 9.64524 273.31 12.98 272.229 14.4736C270.837 16.4131 269.323 18.312 267.984 20.2689C266.88 21.8783 266.325 23.621 266.713 25.4504C267.504 29.1441 271.72 31.5815 276.703 31.2688C281.839 30.9504 285.568 27.4304 284.929 23.5457ZM276.445 28.7331C272.861 28.9589 269.833 27.2047 269.262 24.5531C268.98 23.2389 269.384 21.9883 270.175 20.8305C271.134 19.4236 272.222 18.0573 273.226 16.6621C274.002 15.591 275.691 13.1942 275.836 13.0089C275.958 13.1594 276.034 13.2405 276.102 13.3389C277.533 15.2842 278.971 17.2294 280.371 19.192C281.269 20.4484 282.113 21.7278 282.357 23.181C282.813 25.9773 280.135 28.5073 276.445 28.7331Z" fill="#103E3C" stroke="#103E3C" stroke-miterlimit="10"/>
<path d="M333.573 103.924C332.041 108.426 331.276 111.791 331.276 114.019C331.276 116.154 332.018 117.918 333.503 119.31C335.035 120.703 336.915 121.515 339.143 121.747V123H310.042V121.747C312.038 121.283 313.523 120.749 314.497 120.146C315.519 119.542 316.516 118.544 317.491 117.152C319.394 114.46 321.529 110.051 323.896 103.924L346.87 43.2861C348.263 39.3874 348.959 36.6259 348.959 35.0014C348.959 32.4951 347.497 30.9867 344.573 30.4762V29.1534H376.18V30.4762C373.442 31.2188 372.072 32.936 372.072 35.628C372.072 36.9739 372.49 38.8073 373.326 41.1279L397.762 111.304C399.201 114.878 400.361 117.338 401.243 118.684C402.171 120.03 403.912 121.051 406.464 121.747V123H374.091V121.747C378.733 120.679 381.053 117.338 381.053 111.722C381.053 107.359 379.336 102.81 375.902 98.0763C372.513 93.3422 367.802 89.3972 361.769 86.2411C355.735 83.0386 349.098 81.3678 341.858 81.2285L333.573 103.924ZM356.965 39.8747L344.016 74.1274C349.493 74.1274 354.737 75.0788 359.75 76.9817C364.809 78.8847 369.148 81.7158 372.769 85.4753L356.965 39.8747ZM467.66 69.811L433.964 99.1903V105.456C433.964 110.608 434.451 114.622 435.426 117.5C436.447 120.331 438.814 121.747 442.527 121.747V123H410.85V121.747C413.496 121.468 415.445 120.54 416.698 118.962C417.951 117.384 418.717 115.574 418.996 113.532C419.274 111.443 419.413 108.751 419.413 105.456V70.2287C419.413 66.9334 419.251 64.2647 418.926 62.2225C418.648 60.1339 417.859 58.3006 416.559 56.7226C415.306 55.0981 413.403 54.1931 410.85 54.0074V52.6847H442.527V54.0074C438.814 54.0074 436.447 55.4462 435.426 58.3238C434.451 61.155 433.964 65.1233 433.964 70.2287V91.1841L467.66 61.8048C467.613 60.598 467.056 59.0664 465.989 57.2099C464.921 55.3534 462.624 54.2859 459.096 54.0074V52.6847H490.703V54.0074C486.99 54.0074 484.623 55.4462 483.602 58.3238C482.628 61.155 482.14 65.1233 482.14 70.2287V105.456C482.14 110.608 482.628 114.622 483.602 117.5C484.623 120.331 486.99 121.747 490.703 121.747V123H459.096V121.747C462.856 121.376 465.223 119.798 466.198 117.013C467.172 114.182 467.66 110.329 467.66 105.456V69.811ZM434.521 25.6028C438.466 30.9403 443.896 33.609 450.812 33.609C454.896 33.609 458.145 32.8664 460.558 31.3812C463.018 29.896 465.176 27.9699 467.033 25.6028H468.634C468.124 30.4297 466.244 34.3284 462.995 37.2988C459.746 40.2693 455.685 41.7545 450.812 41.7545C446.217 41.7545 442.156 40.1996 438.628 37.09C435.147 33.9339 433.268 30.1049 432.989 25.6028H434.521ZM544.101 104.481C544.101 108.287 544.264 111.327 544.589 113.601C544.914 115.829 545.726 117.709 547.025 119.241C548.371 120.772 550.483 121.608 553.361 121.747V123H519.108V121.747C521.986 121.608 524.074 120.842 525.374 119.449C526.72 118.011 527.555 116.224 527.88 114.089C528.205 111.954 528.367 109.03 528.367 105.317V36.6026C519.549 36.6026 512.401 38.1111 506.925 41.1279C501.494 44.1447 497.433 49.0877 494.741 55.9568L493.419 55.5391L500.45 27.3433C501.007 28.0859 501.889 28.5732 503.096 28.8053C504.349 29.0374 506.275 29.1534 508.874 29.1534H563.595C566.194 29.1534 568.097 29.0374 569.303 28.8053C570.557 28.5732 571.462 28.0859 572.019 27.3433L578.981 55.5391L577.727 55.9568C575.035 49.0877 570.951 44.1447 565.474 41.1279C560.044 38.1111 552.92 36.6026 544.101 36.6026V104.481ZM630.986 69.811L597.29 99.1903V105.456C597.29 110.608 597.778 114.622 598.752 117.5C599.773 120.331 602.141 121.747 605.854 121.747V123H574.177V121.747C576.822 121.468 578.772 120.54 580.025 118.962C581.278 117.384 582.044 115.574 582.322 113.532C582.601 111.443 582.74 108.751 582.74 105.456V70.2287C582.74 66.9334 582.578 64.2647 582.253 62.2225C581.974 60.1339 581.185 58.3006 579.886 56.7226C578.632 55.0981 576.73 54.1931 574.177 54.0074V52.6847H605.854V54.0074C602.141 54.0074 599.773 55.4462 598.752 58.3238C597.778 61.155 597.29 65.1233 597.29 70.2287V91.1841L630.986 61.8048C630.94 60.598 630.383 59.0664 629.315 57.2099C628.248 55.3534 625.95 54.2859 622.423 54.0074V52.6847H654.03V54.0074C650.317 54.0074 647.95 55.4462 646.929 58.3238C645.954 61.155 645.467 65.1233 645.467 70.2287V105.456C645.467 110.608 645.954 114.622 646.929 117.5C647.95 120.331 650.317 121.747 654.03 121.747V123H622.423V121.747C626.182 121.376 628.549 119.798 629.524 117.013C630.499 114.182 630.986 110.329 630.986 105.456V69.811ZM739.453 56.7226L738.339 57.0011C737.132 53.4273 734.904 50.0391 731.655 46.8367C728.453 43.5878 724.299 40.9422 719.194 38.9001C714.135 36.8115 708.495 35.7672 702.276 35.7672C698.192 35.7672 695.198 36.1385 693.295 36.8811C691.439 37.6237 690.255 38.8073 689.745 40.4317C689.234 42.0097 688.979 44.6321 688.979 48.2987V104.481C688.979 108.148 689.141 111.095 689.466 113.323C689.791 115.504 690.626 117.407 691.972 119.032C693.365 120.61 695.5 121.561 698.377 121.886V123H664.055V121.747C668.139 121.143 670.692 119.542 671.713 116.943C672.781 114.298 673.314 110.422 673.314 105.317V47.8809C673.314 42.6363 672.781 38.5752 671.713 35.6976C670.646 32.82 668.093 31.0795 664.055 30.4762V29.1534H725.529C727.664 29.1534 729.311 29.0374 730.472 28.8053C731.632 28.5732 732.491 28.0859 733.048 27.3433L739.453 56.7226ZM772.522 52.6847C780.876 52.6847 788.14 54.0306 794.313 56.7226C800.485 59.3681 805.266 63.406 808.654 68.8363C812.042 74.2202 813.736 80.8572 813.736 88.7474C813.736 96.2198 812.042 102.532 808.654 107.684C805.266 112.836 800.509 116.688 794.382 119.241C788.302 121.747 781.34 123 773.496 123L757.971 122.443V135.392C757.971 138.78 758.111 141.542 758.389 143.677C758.714 145.812 759.48 147.645 760.687 149.177C761.94 150.755 763.843 151.637 766.395 151.822V153.075H734.719V151.822C738.432 151.59 740.775 150.105 741.75 147.367C742.771 144.628 743.282 140.683 743.282 135.531V70.2287C743.282 65.0769 742.771 61.155 741.75 58.4631C740.775 55.7247 738.432 54.2395 734.719 54.0074V52.6847H772.522ZM757.832 58.6719V102.88C757.832 106.454 758.134 109.215 758.737 111.165C759.387 113.068 760.733 114.53 762.775 115.551C764.864 116.525 768.02 117.013 772.243 117.013C777.627 117.013 782.292 115.736 786.237 113.184C790.182 110.585 793.175 107.057 795.218 102.602C797.306 98.146 798.35 93.2494 798.35 87.912C798.35 78.8615 795.519 71.7371 789.857 66.5389C784.195 61.2942 776.815 58.6719 767.718 58.6719H757.832ZM879.596 123C876.533 119.055 874.932 114.785 874.792 110.19C872.147 114.971 868.225 118.544 863.027 120.911C857.875 123.232 852.329 124.392 846.388 124.392C839.751 124.392 834.344 122.907 830.166 119.937C825.989 116.966 823.901 112.905 823.901 107.753C823.901 102.509 825.595 98.0531 828.983 94.3865C832.371 90.6735 836.595 87.7031 841.654 85.4753C846.759 83.2475 852.653 81.3213 859.337 79.6969C866.067 78.026 870.824 76.8657 873.609 76.2159V73.5008C873.609 68.2561 872.541 64.5895 870.406 62.501C868.271 60.366 864.558 59.2985 859.267 59.2985C852.398 59.2985 846.318 60.9461 841.027 64.2414C835.736 67.5368 831.675 72.3405 828.844 78.6526L831.141 55.2606C832.858 56.5137 834.297 57.1403 835.457 57.1403C836.432 57.1403 838.033 56.7458 840.261 55.9568C844.902 54.3323 848.987 53.1488 852.514 52.4062C856.042 51.6636 860.195 51.2923 864.976 51.2923C869.71 51.2923 873.562 51.71 876.533 52.5454C879.55 53.3809 881.986 54.7268 883.843 56.5833C885.699 58.4398 887.022 60.8533 887.811 63.8237C888.647 66.7941 889.064 70.6 889.064 75.2413V102.045C889.064 105.897 889.227 109.03 889.552 111.443C889.923 113.857 890.851 116.015 892.336 117.918C893.822 119.821 896.096 121.097 899.159 121.747V123H879.596ZM873.609 82.0639C865.301 83.8276 857.643 86.6356 850.634 90.4879C843.626 94.3401 840.122 99.4687 840.122 105.874C840.122 109.076 841.259 111.652 843.533 113.601C845.808 115.504 848.523 116.456 851.679 116.456C859.662 116.456 865.301 113.601 868.596 107.893C871.938 102.137 873.609 94.7114 873.609 85.6145V82.0639ZM967.246 102.88C967.246 107.289 967.548 110.445 968.152 112.348C968.801 114.251 969.892 115.504 971.424 116.108C973.002 116.711 975.554 117.013 979.082 117.013C982.516 117.013 985.58 116.27 988.271 114.785C991.01 113.253 993.33 111.118 995.233 108.38C997.136 105.642 998.552 102.555 999.48 99.1206C1000.41 95.6397 1000.87 91.9035 1000.87 87.912C1000.87 83.4099 1000.22 79.3952 998.923 75.8678C997.624 72.2941 995.79 69.3004 993.423 66.887C991.103 64.4735 988.341 62.6634 985.139 61.4567C981.936 60.2035 978.386 59.577 974.487 59.577H967.246V102.88ZM952.975 59.577H945.734C940.722 59.577 936.196 60.6677 932.158 62.8491C928.167 65.0305 925.034 68.2794 922.76 72.5957C920.486 76.8657 919.349 81.9711 919.349 87.912C919.349 96.0806 921.321 102.973 925.266 108.589C929.211 114.205 934.502 117.013 941.139 117.013C944.713 117.013 947.266 116.711 948.797 116.108C950.375 115.504 951.466 114.251 952.07 112.348C952.673 110.399 952.975 107.243 952.975 102.88V59.577ZM952.835 46.6974C952.835 41.2671 952.325 37.206 951.304 34.5141C950.329 31.8221 947.985 30.4762 944.272 30.4762V29.1534L967.246 25.4636V52.6847H979.36C984.094 52.6847 988.689 53.4505 993.145 54.9821C997.647 56.5137 1001.62 58.7879 1005.05 61.8048C1008.48 64.8216 1011.22 68.6042 1013.26 73.1527C1015.31 77.7011 1016.33 82.8994 1016.33 88.7474C1016.33 96.127 1014.7 102.416 1011.45 107.614C1008.21 112.766 1003.84 116.618 998.366 119.171C992.936 121.724 986.926 123 980.335 123L967.386 122.304V135.392C967.386 138.78 967.525 141.542 967.803 143.677C968.128 145.812 968.894 147.645 970.101 149.177C971.354 150.755 973.257 151.637 975.81 151.822V153.075H944.411V151.822C946.964 151.637 948.844 150.755 950.051 149.177C951.304 147.645 952.07 145.812 952.348 143.677C952.673 141.542 952.835 138.78 952.835 135.392V122.304L939.886 123C935.106 123 930.58 122.304 926.31 120.911C922.04 119.519 918.211 117.384 914.823 114.506C911.435 111.582 908.766 107.985 906.817 103.715C904.914 99.3991 903.963 94.4097 903.963 88.7474C903.963 81.0893 905.68 74.5219 909.115 69.0452C912.595 63.5685 917.144 59.4841 922.76 56.7922C928.422 54.0538 934.456 52.6847 940.861 52.6847H952.835V46.6974Z" fill="#103E3C"/>
</svg>
